<svg xmlns="http://www.w3.org/2000/svg" viewBox="0 0 2459.64 2099.17"><title>Asset 16</title><g id="Layer_2" data-name="Layer 2"><g id="Layer_14" data-name="Layer 14"><path d="M2286.41,863.7a123,123,0,0,1,66.18,19c124.88,77.76-45.17,128.42,14,133.95S2108,1231.14,2108,1231.14s95-36.9,164.7-36.89c42.79,0,76,13.92,71.85,58.83-11,118.06-368.42,124.29-368.42,124.29s196,18.5-107,88.88-534.25,405.59-534.25,405.59c75.83-729.88,277.84-703.71,559.32-899.34,88.36-61.41,139.34-82.47,167.72-82.47,62,0,16,100.67,16,100.67s102.41-127,208.47-127m0-60v0c-33.35,0-68.18,8.7-103.53,25.87A372.62,372.62,0,0,0,2131.72,860a85.16,85.16,0,0,0-26.84-20.55c-12.82-6.26-27.29-9.43-43-9.43-24.49,0-53,7.84-87,24-32.33,15.3-69.92,37.95-114.92,69.22-47.16,32.78-92.22,59.2-135.79,84.76-53.47,31.36-104,61-151.41,98.29-54.75,43.06-97.15,89.86-133.44,147.28C1398.57,1318,1366,1396,1339.66,1492c-27.82,101.5-48.92,223.71-64.49,373.62l-24.26,233.55,133.33-193.28c.53-.76,56.78-81.51,147.59-169.06,52.54-50.65,106.22-93.65,159.55-127.8,64.9-41.57,129.26-69.94,191.28-84.35,65.89-15.3,113.28-29.21,144.88-42.52,17.94-7.56,31.13-15,41.48-23.42,11.76-9.57,19-19.81,23.32-29.47,23.48-2.64,48.86-6.12,74.46-10.73,58.16-10.46,105.91-24.71,141.92-42.37,25.24-12.37,45-26.34,60.44-42.68,20.41-21.63,32.55-47.51,35.1-74.85,4-42.7-12.07-70.2-26.23-85.75q-17.24-18.92-43.13-28.63,22.94-17.79,39.66-32.17c15.37-13.22,26.94-24.42,35.4-34.23a117.1,117.1,0,0,0,15.07-21.46c9.32-17.57,9.87-33.25,8-44.58,1.93-2.43,3.84-5,5.7-7.62,16-22.9,22.85-47.17,20.37-72.11-2-20.49-10.34-39.92-24.68-57.78-12.21-15.19-28.62-29.1-50.17-42.52a182.59,182.59,0,0,0-97.89-28.09Z" fill="#32ad5b"/><path d="M1227.78,1300.35" fill="none" stroke="#32ad5b" stroke-miterlimit="10" stroke-width="60"/><path d="M1218.77,60l2.32,0,12.84,1h1.65c100.67,0,86.53,136.73,73.69,203.27-5.12,20.49-8.13,35.54-8.13,35.54s4-14.14,8.13-35.54C1320.18,220.54,1340.71,152,1362.1,152a11.23,11.23,0,0,1,6.3,2.06c67.27,44.85-8.41,131.73-28,249.45-16.35,98.08,20.18,106.26,32.82,106.26a22.2,22.2,0,0,0,4.11-.33s21.93-173.2,88.61-197.09c103.12,23.76-94.52,507.35-94.52,507.35s196.4-311.64,247.81-311.63a9.65,9.65,0,0,1,5.57,1.62c40.55,27.7,23.92,118.05.07,197.12,32.75-32.95,58.23-43.93,77.67-43.93,38.9,0,53.55,44,53.55,44S1793.73,820,1624.9,904.31c-153.19,76.51-360.1,346.64-397.12,396-38.13-51.23-242.85-320.06-395.37-396.24C663.58,819.79,701.26,706.69,701.26,706.69s14.64-44,53.55-44c19.43,0,44.93,11,77.67,43.93-23.85-79.07-40.48-169.42.07-197.12a9.62,9.62,0,0,1,5.57-1.62c51.43,0,247.81,311.63,247.81,311.63S888.28,335.92,991.4,312.16c66.68,23.89,88.61,197.09,88.61,197.09a22.18,22.18,0,0,0,4.11.33c12.64,0,49.17-8.18,32.82-106.26-19.62-117.72-95.3-204.61-28-249.45a11.22,11.22,0,0,1,6.3-2.06c23.33,0,45.64,81.56,55.58,123.51,3,15,5.39,24.3,5.39,24.3s-2-9.78-5.39-24.3c-12-60.92-32.59-215.33,68-215.32m0-60c-20.46,0-39.49,4-56.55,11.86a121.94,121.94,0,0,0-43.37,33.67c-10.67,13-19.18,28.5-25.42,46.3a71.29,71.29,0,0,0-37.79,12.11c-20.18,13.45-35,30.61-44,51-8,18-11.2,38.27-9.65,60.31a213.44,213.44,0,0,0,7,39.45l-13.85-5-17.14,4c-26.32,6.07-48,23.23-61,48.35-10.21,19.69-15.22,44.1-15.32,74.63-.07,22.38,2.42,47.94,7.61,78.14q2.67,15.49,6.29,32.53-7.14-6.83-13.71-12.27c-14.09-11.66-36-27.17-63.65-27.19A69.56,69.56,0,0,0,798.7,460c-14.89,10.17-34.69,29.68-44.45,64.88-5.39,19.45-7.29,41.5-5.79,67.41q.3,5.2.78,10.58c-32.45,1.63-61.83,17.5-83.23,45.11a141.54,141.54,0,0,0-21.68,39.81c-2.57,7.71-14.6,49,1.74,103.32,9.35,31.07,26.18,60.25,50,86.75,27.4,30.45,64.25,57.36,109.51,80,56.93,28.44,134,95.52,222.84,194,74,82,134.43,161.87,151.2,184.4l48,64.44,48.18-64.28c16.75-22.35,77.18-101.64,151.43-183.53,89.65-98.88,167.28-166.24,224.48-194.81,45.27-22.61,82.11-49.51,109.51-80,23.84-26.5,40.67-55.68,50-86.75,16.34-54.28,4.31-95.61,1.73-103.35a141.57,141.57,0,0,0-21.68-39.79c-21.39-27.61-50.77-43.48-83.22-45.11q.48-5.39.78-10.58c1.49-25.91-.4-48-5.79-67.41-9.76-35.2-29.56-54.71-44.45-64.88a69.56,69.56,0,0,0-39.39-12.07h0c-27.65,0-49.58,15.51-63.67,27.17q-6.59,5.46-13.72,12.27,3.62-17,6.29-32.52c5.2-30.2,7.69-55.76,7.61-78.14-.1-30.52-5.11-54.93-15.32-74.63-13-25.11-34.68-42.28-61-48.35l-17.14-3.95-13.85,5a213.44,213.44,0,0,0,7-39.45c1.55-22-1.7-42.33-9.65-60.31-9-20.39-23.83-37.55-44-51a71.35,71.35,0,0,0-36.94-12.09,149.4,149.4,0,0,0-24.81-44.2C1322.34,26.55,1290.06,1.17,1236.08,1L1225.69.2l-1.61-.12-1.61,0c-1.23,0-2.47,0-3.69,0h0Z" fill="#32ad5b"/><path d="M173.24,863.7c106.06,0,208.47,127,208.47,127s-46-100.66,16-100.67c28.38,0,79.36,21.06,167.72,82.47C847,1168.12,1049,1142,1124.8,1871.83c0,0-231.24-335.21-534.25-405.59s-107-88.88-107-88.88-357.42-6.23-368.42-124.29c-4.19-44.91,29.06-58.83,71.85-58.83,69.68,0,164.7,36.89,164.7,36.89S33.92,1022.21,93.07,1016.68s-110.9-56.19,14-133.95a123,123,0,0,1,66.18-19m0-60a182.58,182.58,0,0,0-97.9,28.09c-21.55,13.42-38,27.33-50.17,42.52C10.83,892.17,2.53,911.61.49,932.09-2,957,4.87,981.3,20.86,1004.21c1.85,2.66,3.76,5.2,5.7,7.62-1.82,11.33-1.27,27,8,44.58a117.1,117.1,0,0,0,15.07,21.46c8.45,9.81,20,21,35.4,34.23q16.66,14.34,39.66,32.17-25.83,9.68-43.13,28.63c-14.17,15.55-30.22,43-26.23,85.75,2.55,27.34,14.69,53.23,35.1,74.85,15.43,16.34,35.2,30.3,60.44,42.68,36,17.66,83.76,31.91,141.92,42.37,25.6,4.6,51,8.09,74.46,10.73,4.34,9.66,11.56,19.91,23.32,29.47,10.36,8.42,23.54,15.87,41.48,23.42,31.6,13.31,79,27.22,144.88,42.52,62.4,14.49,127.14,43.12,192.44,85.09,53.56,34.42,107.44,77.75,160.16,128.76,90.36,87.45,145.29,166.57,145.83,167.36l133.33,193.28-24.26-233.55C1168.9,1715.72,1147.8,1593.51,1120,1492c-26.32-96-58.91-174-99.62-238.45-36.29-57.42-78.69-104.22-133.44-147.28C839.49,1069,789,1039.35,735.5,1008c-43.57-25.56-88.63-52-135.79-84.76-45-31.27-82.59-53.92-114.91-69.22-34.08-16.14-62.56-24-87-24-15.73,0-30.19,3.18-43,9.44A85.17,85.17,0,0,0,327.92,860a372.57,372.57,0,0,0-51.16-30.43c-35.35-17.17-70.18-25.87-103.53-25.87Z" fill="#32ad5b"/></g></g></svg>