<?xml version="1.0" encoding="UTF-8"?>
<svg width="171px" height="200px" viewBox="0 0 171 200" version="1.1" xmlns="http://www.w3.org/2000/svg" xmlns:xlink="http://www.w3.org/1999/xlink">
    <!-- Generator: Sketch 47.1 (45422) - http://www.bohemiancoding.com/sketch -->
    <title>Plant</title>
    <desc>Created with Sketch.</desc>
    <defs></defs>
    <g id="Plant-UI" stroke="none" stroke-width="1" fill="none" fill-rule="evenodd">
        <g transform="translate(-262.000000, -478.000000)" id="Group-9">
            <g transform="translate(63.000000, 164.000000)">
                <g id="Group-4" transform="translate(0.000000, 84.000000)">
                    <g id="Group-3" transform="translate(120.600000, 130.500000)">
                        <g id="Plant" transform="translate(78.300000, 99.900000)">
                            <path d="M0.442152,19.0274375 C0.442152,19.0274375 26.788392,19.0281581 32.642712,19.0274375 C38.497032,19.0259964 60.019992,18.6203279 66.599352,32.2098622 C70.989912,41.2801197 70.989912,63.5558595 70.989912,63.5558595 C70.989912,63.5558595 66.599352,53.3024622 39.375432,51.8383088 C12.151512,50.3734348 5.418792,43.0490649 0.442152,19.0274375 Z" id="Stroke-5" fill="olive" transform="rotate(-70 65 60)"></path>
                            <path d="M110.358144,0.361426849 C110.358144,0.361426849 93.361104,0.362147397 89.583264,0.361426849 C85.806144,0.360706301 71.920224,0.0991473973 67.675824,8.86677479 C64.842624,14.7183447 64.842624,29.090394 64.842624,29.090394 C64.842624,29.090394 67.675824,22.4743227 85.239504,21.5296844 C102.803904,20.5843255 107.147664,15.8596926 110.358144,0.361426849 Z" id="Stroke-9" fill="olive"></path>
                            <path d="M73.26972,86.1136937 C73.26972,86.1136937 77.36796,74.3954225 94.05324,71.1731321 C110.73924,67.9501211 167.82156,79.3751293 170.163,24.5933101 L118.93572,24.5933101 C118.93572,24.5933101 76.19652,20.4919512 70.63524,55.3535019 L68.87844,112.186721 L75.0258,112.186721 L73.26972,86.1136937 Z" id="Stroke-11" fill="olive"></path>
                            <path d="M32.642496,19.0274375 C30.859056,19.0274375 27.171216,19.0274375 22.909536,19.0274375 C22.937616,19.0295992 65.722896,21.4578458 70.990416,63.5558595 C70.990416,63.5558595 70.990416,41.2801197 66.599136,32.2098622 C60.019776,18.6210485 38.497536,19.0259964 32.642496,19.0274375 Z" id="Stroke-3" fill="darkolivegreen"></path>
                            <path d="M113.536296,199.250025 L38.818296,199.250025 C32.399496,199.250025 27.147816,192.477242 27.147816,184.198459 L19.367496,118.348337 C19.367496,110.07032 24.619176,103.297537 31.037976,103.297537 L120.765816,103.297537 C127.184616,103.297537 132.436296,110.07032 132.436296,118.348337 L125.206776,184.198459 C125.206776,192.477242 119.955096,199.250025 113.536296,199.250025 Z" id="Stroke-19" fill="#F37327"></path>
                            <path d="M118.935576,24.5933822 C118.935576,24.5933822 76.197096,20.4920233 70.635096,55.353574 L68.879016,112.186073 L75.026376,112.186073 L73.269576,86.1137658 C73.269576,86.1137658 65.073096,35.4325849 127.425096,24.5933822 L118.935576,24.5933822 Z" id="Stroke-1" fill="darkolivegreen"></path>
                            <path d="M20.5927983,128.718901 L19.367496,118.348337 C19.367496,112.715263 21.7993448,107.779204 25.3759708,105.2 L126.427821,105.2 C130.004447,107.779204 132.436296,112.715263 132.436296,118.348337 L131.297738,128.718901 L20.5927983,128.718901 Z" id="Combined-Shape" fill="#CE6222"></path>
                            <path d="M141.441192,121.160641 L12.052152,121.160641 C8.586792,121.160641 5.752152,118.323124 5.752152,114.855847 L5.752152,109.602332 C5.752152,106.134335 8.586792,103.297537 12.052152,103.297537 L141.441192,103.297537 C144.905832,103.297537 147.741192,106.134335 147.741192,109.602332 L147.741192,114.855847 C147.741192,118.323124 144.905832,121.160641 141.441192,121.160641 Z" id="Stroke-21" fill="#F37327"></path>
                            <path d="M89.583624,0.361426849 C90.734184,0.361426849 93.113064,0.361426849 95.862744,0.361426849 C95.844744,0.362867945 68.241384,1.92933918 64.842984,29.0896734 C64.842984,29.0896734 64.842984,14.7183447 67.675464,8.86677479 C71.920584,0.0991473973 85.806504,0.360706301 89.583624,0.361426849 Z" id="Stroke-7" fill="darkolivegreen"></path>
                        </g>
                    </g>
                </g>
            </g>
        </g>
    </g>
</svg>
