<svg style="fill: #dd3b4c;" xmlns="http://www.w3.org/2000/svg" xmlns:xlink="http://www.w3.org/1999/xlink" version="1.1" x="0px" y="0px" viewBox="0 0 100 100" enable-background="new 0 0 100 100" xml:space="preserve"><path d="M64.018,24.843c-2.695-3.145-2.949-4.749-2.949-10.843c0-1.491-1.209-2.7-2.7-2.7s-2.7,1.209-2.7,2.7  c0,6.679,0.385,9.848,4.251,14.357c11.955,13.948-3.265,32.584-8.76,38.492c-5.538-5.901-20.919-24.545-8.965-38.491  c3.866-4.51,4.251-7.679,4.251-14.357c0-1.491-1.209-2.7-2.7-2.7s-2.7,1.209-2.7,2.7c0,6.094-0.254,7.698-2.949,10.843  c-14.152,16.51,1.162,38.512,11.238,47.837c0.518,0.48,1.176,0.72,1.834,0.72c0.662,0,1.324-0.243,1.843-0.727  C63.004,63.347,78.165,41.347,64.018,24.843z"></path><path d="M60.168,5h-18c-1.491,0-2.699,1.209-2.699,2.7v10.8c0,1.491,1.208,2.7,2.699,2.7h18c1.492,0,2.7-1.209,2.7-2.7V7.7  C62.868,6.209,61.66,5,60.168,5z"></path><path d="M36.558,70.532c-0.838-1.234-2.519-1.554-3.751-0.715l-11.25,7.65c-1.232,0.838-1.553,2.517-0.714,3.75  c0.521,0.77,1.371,1.183,2.234,1.183c0.522,0,1.052-0.151,1.516-0.468l11.25-7.65C37.076,73.444,37.396,71.766,36.558,70.532z"></path><path d="M28.451,49.193c-0.197-1.478-1.55-2.517-3.033-2.32l-13.5,1.8c-1.479,0.197-2.517,1.555-2.319,3.033  c0.181,1.356,1.341,2.343,2.673,2.343c0.118,0,0.239-0.008,0.36-0.023l13.5-1.8C27.61,52.029,28.648,50.671,28.451,49.193z"></path><path d="M79.943,77.468l-11.25-7.65c-1.233-0.838-2.912-0.518-3.751,0.715c-0.838,1.233-0.519,2.912,0.715,3.75l11.25,7.65  c0.465,0.316,0.992,0.468,1.515,0.468c0.864,0,1.714-0.414,2.235-1.183C81.496,79.984,81.176,78.306,79.943,77.468z"></path><path d="M89.582,48.674l-13.5-1.8c-1.482-0.196-2.836,0.842-3.033,2.32c-0.197,1.478,0.841,2.836,2.319,3.033l13.5,1.8  c0.121,0.016,0.241,0.023,0.36,0.023c1.332,0,2.492-0.986,2.673-2.343C92.098,50.229,91.061,48.871,89.582,48.674z"></path><path d="M59.957,33.168c-0.35-0.931-1.386-1.402-2.317-1.053c-0.931,0.349-1.402,1.386-1.054,2.317  c0.024,0.065,2.391,6.607-1.753,15.723c-0.411,0.904-0.011,1.972,0.895,2.383c0.24,0.11,0.493,0.163,0.743,0.163  c0.684,0,1.338-0.394,1.64-1.057C62.864,41.187,60.078,33.491,59.957,33.168z"></path><path d="M51.875,77.9c-1.491,0-2.7,1.208-2.7,2.699v11.7c0,1.491,1.209,2.7,2.7,2.7s2.7-1.209,2.7-2.7V80.6  C54.575,79.108,53.366,77.9,51.875,77.9z"></path></svg>