<svg style="fill: #dd3b4c;" version="1.1" xmlns="http://www.w3.org/2000/svg" xmlns:xlink="http://www.w3.org/1999/xlink" x="0px" y="0px" viewBox="0 0 1000 1000" enable-background="new 0 0 1000 1000" xml:space="preserve">
<metadata> Svg Vector Icons : http://www.onlinewebfonts.com/icon </metadata>
<g><g transform="translate(0.000000,511.000000) scale(0.100000,-0.100000)"><path d="M5104.9,4989.7c-1174.6-136.8-2134.3-749.1-2727-1741.3c-121.6-206.3-112.9-312.7,26-364.8c95.5-36.9,162.8,13,282.2,208.4c358.3,586.2,866.3,1037.8,1461.2,1294c916.2,399.5,2240.7,388.6,3169.9-23.9l102.1-43.4l-32.6-76c-115.1-275.7-13-670.9,225.8-881.5c43.4-39.1,141.1-97.7,217.1-134.6c182.4-84.7,423.4-91.2,618.8-17.4c175.9,67.3,360.4,243.2,440.7,419c56.5,121.6,63,160.7,63,343c0,178-8.7,223.6-58.6,330c-76,165-206.3,299.6-369.1,388.6c-130.3,71.6-145.5,73.8-366.9,73.8c-221.5,0-236.7-2.2-384.3-78.2l-152-78.2l-125.9,52.1c-412.5,169.3-781.6,269.2-1176.8,321.3C6053.7,5015.7,5374.1,5020.1,5104.9,4989.7z M8383.4,4379.6c49.9-28.2,119.4-91.2,154.2-143.3c89-125.9,106.4-343,36.9-475.5c-89-175.9-293.1-286.6-482-260.5c-301.8,39.1-495,384.3-369.1,655.7C7842.8,4412.1,8140.2,4514.2,8383.4,4379.6z"/><path d="M6998.2,4012.7c-58.6-28.2-191.1-223.6-238.8-349.6c-78.1-208.4-10.8-514.6,156.3-712.1c60.8-73.8,160.7-86.8,238.8-32.6c80.3,56.5,80.3,128.1-2.2,288.8c-41.2,80.3-82.5,171.5-89,204.1c-17.4,67.3,47.8,225.8,130.3,325.7C7326,3893.2,7178.4,4099.5,6998.2,4012.7z"/><path d="M1856.8,2686.1c-117.3-123.8-236.7-312.6-308.3-488.5c-78.2-193.2-97.7-495-45.6-696.9l36.9-136.8l-104.2-117.2C1023.1,782,929.8,104.6,1203.3-451.3l78.2-154.1l-58.6-160.7c-84.7-225.8-97.7-527.6-34.7-775.1c112.9-445.1,403.8-838.1,749-1007.4c95.5-47.8,143.3-93.4,288.8-290.9c204.1-273.6,495-562.3,723-716.5c228-152,492.9-288.8,562.3-288.8c130.3,0,214.9,143.3,145.5,249.7c-19.5,28.2-123.8,97.7-232.3,154.2c-440.7,228-738.2,512.4-1102.9,1055.2c-123.8,186.7-169.4,221.4-262.7,201.9c-56.5-13-80.3,0-186.7,102c-238.8,223.6-377.8,549.3-377.8,877.1c0,212.8,36.9,340.9,149.8,503.7l78.2,117.2l-82.5,89c-308.3,334.4-332.2,964-49.9,1391.7c108.6,160.7,186.7,214.9,334.4,225.8l119.4,10.9l-10.8-63c-6.5-34.7-28.2-156.3-49.9-269.2c-49.9-273.6-34.7-736,30.4-987.9c108.6-406,327.8-710,607.9-844.6c136.8-65.1,154.2-67.3,403.8-65.1c314.8,2.2,390.8,26.1,816.4,258.4c160.7,86.8,371.3,186.7,466.8,221.5c158.5,56.4,195.4,60.8,486.3,60.8c284.4-2.2,332.2-6.5,479.8-58.6c89-32.6,269.2-117.2,401.7-188.9c295.3-165,412.5-210.6,631.8-241c362.6-47.8,694.8,58.6,942.3,306.1c152,152,301.8,445.1,356.1,699.1c49.9,230.1,34.7,755.6-28.2,985.7c-23.9,86.8-36.9,160.7-30.4,167.2c15.2,17.4,156.3,15.2,241,0c158.5-32.6,325.7-290.9,384.3-588.4c78.2-414.7-17.4-812-251.9-1046.5l-102-102l82.5-141.1c110.8-182.4,156.3-343,154.2-529.8c-2.2-286.6-139-584-366.9-794.6c-134.6-125.9-186.7-154.2-256.2-136.8c-84.7,21.7-145.5-34.7-288.8-267c-605.8-985.7-1450.4-1665.3-2364.4-1908.4c-273.6-73.8-445.1-65.1-614.4,26c-154.2,84.7-199.8,158.5-188.9,310.5c10.9,141.1,80.3,219.3,195.4,219.3c106.4,0,132.4-26.1,115.1-115.1c-43.4-232.3,234.5-319.2,321.3-99.9c93.4,234.5-36.9,473.3-299.6,542.8c-366.9,99.9-716.5-225.8-679.6-634c28.2-312.7,267.1-538.5,653.5-621c262.7-54.3,616.6,13,1066.1,206.3c764.3,330,1528.5,1009.6,2036.5,1810.8c67.3,104.2,102.1,136.8,225.8,199.7c186.7,93.4,321.3,204.1,460.3,377.8c330,412.5,419,955.3,228,1389.6l-50,112.9l63,95.5c156.3,230.2,225.8,488.5,223.6,838.1c-4.4,419-121.6,762.1-340.9,987.9l-115.1,117.2l30.4,115.1c19.5,76,28.2,180.2,21.7,310.5c-15.2,325.7-149.8,636.1-375.6,872.8l-108.6,115.1H4794.4H1943.7L1856.8,2686.1z M7608.3,2308.3c160.7-243.2,228-573.2,160.7-777.3l-26.1-78.2H4816.1c-2905,0-2928.9,0-2952.8,43.4c-13,23.9-32.6,97.7-45.6,162.8c-36.9,206.3,34.7,462.5,195.4,679.6l67.3,91.2h2722.6h2722.7L7608.3,2308.3z M7180.6,1079.4c10.8-28.2,23.9-71.7,32.6-97.7l15.2-49.9h-317c-308.3,0-319.2-2.2-369.1-54.3c-30.4-28.2-54.3-76-54.3-106.4c0-160.7,67.3-186.7,475.5-186.7h325.7l15.2-78.2c19.6-99.9-6.5-373.4-47.7-538.5C7184.9-312.3,6996-562,6785.4-655.4c-93.4-41.3-149.8-49.9-319.2-49.9c-245.3,2.2-304,21.7-651.3,215c-310.5,171.5-521.1,243.2-814.2,275.7c-447.3,49.9-775.1-28.2-1291.8-306.1c-380-206.3-503.7-249.7-705.6-249.7c-184.5,0-286.6,47.8-416.9,188.9c-108.6,117.2-160.7,215-221.4,412.5c-49.9,162.8-89,514.6-71.7,662.2l8.7,91.2h314.8c399.5,0,462.5,26.1,462.5,195.4c0,41.3-19.5,78.2-56.5,106.4c-52.1,41.3-86.8,45.6-358.2,45.6c-193.2,0-301.8,8.7-301.8,21.7s15.2,56.5,30.4,97.7l32.6,76h2368.7H7161L7180.6,1079.4z"/><path d="M3070.5,393.3c-99.9-69.5-143.3-154.2-143.3-280.1c0-89,10.9-125.9,56.5-180.2c112.9-132.5,282.2-169.4,416.9-86.9c191.1,117.2,208.4,360.4,39.1,518.9C3361.4,438.9,3161.7,454.1,3070.5,393.3z"/><path d="M6225.2,382.5c-139-93.4-186.7-262.7-108.6-406c145.5-275.7,542.8-208.4,601.4,99.9c17.4,97.7-56.4,256.2-147.6,312.6C6470.6,449.8,6320.8,447.6,6225.2,382.5z"/><path d="M4060.6-1007.1c-115.1-121.6-15.2-277.9,267.1-419c204.1-99.9,384.3-132.4,568.8-102c182.4,32.6,395.2,136.8,518.9,254c108.6,104.2,121.6,169.4,49.9,260.5c-67.3,84.7-158.5,76-301.8-30.4c-275.8-206.3-558-199.8-833.7,19.5C4225.6-941.9,4127.9-935.4,4060.6-1007.1z"/></g></g>
</svg>